<svg id="iconfinder_38-instagram_1161954" xmlns="http://www.w3.org/2000/svg" width="35.451" height="35.45" viewBox="0 0 35.451 35.45">
  <circle id="Ellipse_272" data-name="Ellipse 272" cx="3.17" cy="3.17" r="3.17" transform="translate(14.411 14.699)" fill="#fff"/>
  <path id="Path_11909" data-name="Path 11909" d="M29.045,19.2H21.119a3.938,3.938,0,0,0-2.81,1.009,3.938,3.938,0,0,0-1.009,2.81v7.926a3.972,3.972,0,0,0,1.081,2.882,4.062,4.062,0,0,0,2.81,1.009h7.854a3.938,3.938,0,0,0,2.81-1.009,3.691,3.691,0,0,0,1.081-2.81V23.091a4.062,4.062,0,0,0-1.009-2.81A3.858,3.858,0,0,0,29.045,19.2ZM25.082,31.881a4.9,4.9,0,1,1,0-9.8,4.9,4.9,0,1,1,0,9.8ZM30.2,23.019a1.153,1.153,0,1,1,1.153-1.153A1.138,1.138,0,0,1,30.2,23.019Z" transform="translate(-7.501 -9.113)" fill="#fff"/>
  <path id="Path_11910" data-name="Path 11910" d="M21.425,5.2A17.725,17.725,0,1,0,39.15,22.925,17.712,17.712,0,0,0,21.425,5.2Zm9.439,21.9a5.712,5.712,0,0,1-1.585,4.107,5.607,5.607,0,0,1-4.035,1.513H17.39a5.607,5.607,0,0,1-4.035-1.513A5.429,5.429,0,0,1,11.77,27.1V19.178a5.332,5.332,0,0,1,5.62-5.62h7.926a5.314,5.314,0,0,1,5.548,5.62V27.1Z" transform="translate(-3.7 -5.2)" fill="#fff"/>
</svg>
