<svg xmlns="http://www.w3.org/2000/svg" viewBox="0 0 198.15 161.82"><defs><style>.cls-1{fill:#428ecc;}.cls-2{fill:#fcc00e;}</style></defs><g id="Layer_2" data-name="Layer 2"><g id="Layer_1-2" data-name="Layer 1"><path class="cls-1" d="M142.94,5.38a12.63,12.63,0,0,1-1.32-4.17c-20.46,1.37-38.89,14.48-46.26,33.26.59,0,1.18,0,1.76.05C105.49,17.39,124.07,6.21,143.82,7,143.52,6.48,143.22,5.94,142.94,5.38Zm12.68,99.47a30.17,30.17,0,0,0-10.47.9c-10,2.51-20.13-1.14-29-6.71a3.43,3.43,0,0,1-.33-.24,6.3,6.3,0,0,0,1.69,1.69c9.56,6,20.56,10,31.3,7.24a36.62,36.62,0,0,1,4.67-.88,28.9,28.9,0,0,1,12.1,1A27.58,27.58,0,0,0,155.62,104.85ZM71,139.46a48.29,48.29,0,0,1-24.79.8c-4.89-1.13-8.62-.62-12.56,2.32-1.23.92-2.5,1.78-3.79,2.61.53.17,1.05.33,1.58.48C34.69,144.16,38,144.06,42,145a52.24,52.24,0,0,0,38.44-6Q75.79,139.41,71,139.46ZM197.86,62.38a53.52,53.52,0,0,0,.28-6.46,56.58,56.58,0,0,0-5.44-23.47A54.6,54.6,0,0,0,190,27.39,56.89,56.89,0,0,0,162.83,4.15h0A55.77,55.77,0,0,0,141.54,0a54.2,54.2,0,0,0-12.9,1.61c-18.85,4.71-31.54,15.87-39,32.88a78.13,78.13,0,0,0-3.35,9c-1.17-.55-2-.9-2.73-1.28-13.56-6.82-28.08-8.32-41.26-5A55.51,55.51,0,0,0,11.72,57.6,57.11,57.11,0,0,0,2.46,75.4c-4.65,14.95-2.69,31.18,5.67,45.46.73,1.26,1.52,2.51,2.35,3.73,1.21,1.77,2.52,3.51,3.93,5.2.34.41.68.81,1,1.21A7.78,7.78,0,0,1,17,135.46a7.29,7.29,0,0,1-.13,2.12c-.19.82-.39,1.65-.61,2.47-1.35,5.12-3.19,10.12-4.48,15.26-.51,2,.13,4.34.25,6.51,2.12-.38,4.54-.23,6.29-1.25,6.26-3.65,12.14-7.95,18.47-11.45a14.08,14.08,0,0,1,3.13-1.23,12.38,12.38,0,0,1,5.31-.31,56.78,56.78,0,0,0,65-37.72c.51-1.49,1.07-3,1.61-4.43,17.37,6.83,19.68,7.72,35.55,6.64,2.44-.16,5.2-.38,8.38-.62a8,8,0,0,1,4.4,1.45l1.94,1.21.16.1c6.05,3.78,12,7.72,18.16,11.38a5.33,5.33,0,0,0,1.61.58c1.23.25,2.6.24,3.84.45.27-2,1.12-4.1.69-5.92a141.41,141.41,0,0,0-4.94-16.65c-1.51-4-1-6.7,2.1-10A54.67,54.67,0,0,0,197.86,62.38Zm-176-5.7A49.54,49.54,0,0,1,49.16,43a48.78,48.78,0,0,1,35.1,7.9,50,50,0,0,1,21.67,35.72A49.66,49.66,0,0,1,71,139.46a48.29,48.29,0,0,1-24.79.8c-4.89-1.13-8.62-.62-12.56,2.32-1.23.92-2.5,1.78-3.79,2.61-2.8,1.81-5.69,3.47-8.51,5.25L19.59,150a27.9,27.9,0,0,0,3.58-7.08,18,18,0,0,0-.48-12.53,45.79,45.79,0,0,0-6.94-11.23C1.08,100.41,4.84,73.48,21.86,56.68ZM113.29,94a63.15,63.15,0,0,0-1.65-15.14A57.57,57.57,0,0,0,94.86,50.19a6.31,6.31,0,0,1-1.48-4.39,4.28,4.28,0,0,1,.08-.65,45.58,45.58,0,0,1,3.66-10.63C105.49,17.39,124.07,6.21,143.82,7a47.42,47.42,0,0,1,4.86.44,49.32,49.32,0,0,1,28.95,15.22A49.86,49.86,0,0,1,190,46a45.9,45.9,0,0,1,1,13.32c-.92,13.08-5.88,24.27-15.46,33.17-2.89,2.68-3.38,5.13-2.17,8.59.09.26.18.52.26.78,1.28,3.76,2.36,7.64,3.75,12.3.16.51.31,1,.47,1.55a56,56,0,0,1-4.94-3,48.13,48.13,0,0,0-5.44-3.75c-.64-.38-1.29-.74-1.94-1.06a27.58,27.58,0,0,0-10-3,30.17,30.17,0,0,0-10.47.9c-10,2.51-20.13-1.14-29-6.71a3.43,3.43,0,0,1-.33-.24A7,7,0,0,1,113.29,94ZM71,139.46a48.29,48.29,0,0,1-24.79.8c-4.89-1.13-8.62-.62-12.56,2.32-1.23.92-2.5,1.78-3.79,2.61.53.17,1.05.33,1.58.48C34.69,144.16,38,144.06,42,145a52.24,52.24,0,0,0,38.44-6Q75.79,139.41,71,139.46Zm84.6-34.61a30.17,30.17,0,0,0-10.47.9c-10,2.51-20.13-1.14-29-6.71a3.43,3.43,0,0,1-.33-.24,6.3,6.3,0,0,0,1.69,1.69c9.56,6,20.56,10,31.3,7.24a36.62,36.62,0,0,1,4.67-.88,28.9,28.9,0,0,1,12.1,1A27.58,27.58,0,0,0,155.62,104.85ZM142.94,5.38a12.63,12.63,0,0,1-1.32-4.17c-20.46,1.37-38.89,14.48-46.26,33.26.59,0,1.18,0,1.76.05C105.49,17.39,124.07,6.21,143.82,7,143.52,6.48,143.22,5.94,142.94,5.38Z"/><path class="cls-2" d="M124.85,36.62a3.77,3.77,0,0,1,2-.53h12a3.83,3.83,0,0,0,3.84-3.63,1.62,1.62,0,0,0,0-.22v-.13a3.85,3.85,0,0,0-3.85-3.85h-21a3.86,3.86,0,0,0-3.86,3.85V68.82a3.85,3.85,0,0,0,3.47,3.83h0l.38,0h21a3.87,3.87,0,0,0,3.85-3.85v-.13a3.85,3.85,0,0,0-3.85-3.85h-12A3.85,3.85,0,0,1,123,61V58a3.83,3.83,0,0,1,2.25-3.5,3.71,3.71,0,0,1,1.6-.35h8.1a3.8,3.8,0,0,0,2.72-1.13,3.81,3.81,0,0,0,1.13-2.73,3.85,3.85,0,0,0-3.85-3.85h-8.1A3.85,3.85,0,0,1,123,42.63V40A3.85,3.85,0,0,1,124.85,36.62Z"/><path class="cls-2" d="M166.18,39.23a14,14,0,0,0-4.4.89A22.83,22.83,0,0,0,158,41.84,1.83,1.83,0,0,0,156.19,40h-5a1.83,1.83,0,0,0-1.83,1.83v29a1.82,1.82,0,0,0,1.83,1.82h5.09a1.79,1.79,0,0,0,1.39-.65,1.73,1.73,0,0,0,.44-1.17V49.54a1.82,1.82,0,0,1,1.29-1.75,19.65,19.65,0,0,1,3.41-.66c.42,0,.84-.06,1.25-.06,4.24,0,4.9,3.2,4.9,8.16V70.85a1.82,1.82,0,0,0,1.83,1.82h5.09a1.79,1.79,0,0,0,1.39-.65,1.73,1.73,0,0,0,.44-1.17V55C177.68,45,175.33,39.23,166.18,39.23Z"/><path class="cls-2" d="M66.14,78.23a8.5,8.5,0,0,1-.23,1.64A15.54,15.54,0,0,1,65.27,82a12.64,12.64,0,0,1-.89,1.92,2.39,2.39,0,0,1-1,1.08,55.06,55.06,0,0,0-7.42,3.21,31,31,0,0,0-5.56,3.71A15.19,15.19,0,0,0,46.89,96a8.93,8.93,0,0,0-1.21,4.43,8.26,8.26,0,0,0,4.48,7.46q4.48,2.66,13.28,3.18c1.39.1,2.71.15,4,.15s2.35,0,3.32-.08l2.41-.14c.64,0,1.06-.08,1.28-.08a.46.46,0,0,1,.46.28,2.78,2.78,0,0,1,.13,1,3.91,3.91,0,0,1-.15,1.32.81.81,0,0,1-.47.47c-.88.43-1.9.9-3.06,1.39s-2.33,1-3.54,1.39-2.38.77-3.52,1a12.56,12.56,0,0,1-3,.43A30.81,30.81,0,0,1,51.74,117a16.84,16.84,0,0,1-6.19-3.41,12.25,12.25,0,0,1-3.35-5,17.76,17.76,0,0,1-1-6,19.57,19.57,0,0,1,.56-4.67,21.52,21.52,0,0,1,1.52-4.22,20.53,20.53,0,0,1,2.19-3.57A16.16,16.16,0,0,1,48,87.37a13.07,13.07,0,0,1-2.41-1.56,12.87,12.87,0,0,1-1.94-2,9.45,9.45,0,0,1-1.3-2.25,6.23,6.23,0,0,1-.49-2.42,12.13,12.13,0,0,1,.82-4.27,15.16,15.16,0,0,1,2.27-4,12.83,12.83,0,0,1,3.38-3,7.9,7.9,0,0,1,4.2-1.19,9.3,9.3,0,0,1,2.43.3,9.69,9.69,0,0,1,2,.79,12.7,12.7,0,0,1,1.8,1.13c.55.42,1.09.85,1.6,1.28a2.51,2.51,0,0,1,.76,1,4.71,4.71,0,0,1,.21,1.66c0,.94-.25,1.41-.74,1.41a1.86,1.86,0,0,1-.8-.31c-.37-.21-.8-.43-1.3-.68a14.72,14.72,0,0,0-1.64-.67,5.6,5.6,0,0,0-1.87-.31,9.72,9.72,0,0,0-2.63.38,14,14,0,0,0-2.53,1,12,12,0,0,0-2.1,1.33,6.53,6.53,0,0,0-1.38,1.44,2.14,2.14,0,0,0,.42,1.21A6.45,6.45,0,0,0,48,78.78a12.33,12.33,0,0,0,1.49,1.12,14.21,14.21,0,0,0,1.64.91,14.9,14.9,0,0,0,1.48.62,3.37,3.37,0,0,0,1.09.23,3.91,3.91,0,0,0,1.82-.5c.65-.33,1.34-.65,2.09-1l7.17-2.91c.55-.21.92-.24,1.12-.07A1.36,1.36,0,0,1,66.14,78.23Z"/></g></g></svg>