<svg xmlns="http://www.w3.org/2000/svg" viewBox="0 0 267.78 283.73"><defs><style>.cls-1{fill:#fcc00e;}.cls-2{fill:#428ecc;}</style></defs><g id="Layer_2" data-name="Layer 2"><g id="Layer_1-2" data-name="Layer 1"><path class="cls-1" d="M258,131.67c0,1,0,2,0,3a61.06,61.06,0,0,0-50.32-24.51A58.12,58.12,0,0,0,195,111.89c-21.69,5.41-35.82,18.74-43.67,39.19-.76,1.95-1.45,4-2.09,6-1.27-.59-2.12-1-3-1.38a69,69,0,0,0-11.9-4.67,64,64,0,0,0-11.92-2.27,60.86,60.86,0,0,0-21.82,1.86,60.93,60.93,0,0,0-39.73,82,124.39,124.39,0,1,1,197-101Z"/><path class="cls-2" d="M264.67,104.74A164.76,164.76,0,0,0,257.57,82c-.34-.67-.73-1.32-1-2a128.85,128.85,0,0,0-31.45-44C190.6,4.8,150.29-6.19,105,3.31,70.29,10.58,43.16,29.92,22.94,59c-3.41,4.91-6,10.28-9.18,15.33.11.74-.41,1.26-.68,1.85C.13,103.93-3.34,132.83,3.27,162.7,11,197.52,30,225,59.41,245a135.25,135.25,0,0,0,14.53,8.62,6.37,6.37,0,0,0-1.12-2A69.18,69.18,0,0,1,61,232.67a60.93,60.93,0,0,1,39.73-82l-1.06-.6c-14-7.37-28.83-13.45-39.73-25.63a84.29,84.29,0,0,1-6.51-8.35c-5.62-8.18-11.12-16.42-16.73-24.6a3,3,0,0,1-.28-3.55A111.93,111.93,0,0,1,68.92,48.05a9.1,9.1,0,0,1,.85-.51C73.41,44.25,77.7,42,82,39.59c2.81-1.45,5.66-2.83,8.41-4.37.92-.52,1.43.1,2,.37,2.43,1.12,4.82,2.35,7.23,3.53,1.14.54,2.29,1.06,3.41,1.61,5.63,2.78,9.69,1.58,13.2-3.93.16-.5.32-1,.49-1.5,0-1.29.09-2.59.13-3.88,0-.17,0-.34-.08-.5-.5-2.55.35-3.88,3.14-3.8a14.94,14.94,0,0,0,4-.51c4.3-1.07,7.67.11,10.05,3.91,3.76,3.68,7.63,7.26,11.24,11.09,2.05,2.18,3.15,4.9,1.94,8a12.18,12.18,0,0,1-3.27,5.17c-2.67,3-6.22,5.14-8,8.92-.33,2.19.67,3.8,2.17,5.29,3.67,3.64,3.67,5.26-.08,8.89-1.52,1.46-2.62,3.51-5,3.9l-6.54.2-1,.42c-1.89,1.74-3.82,3.44-5.66,5.23-2.38,2.32-2.63,4-1.2,6.93l2.16,4.49c.16.34.33.67.51,1,1.71,3.36,3.52,6.67,5.12,10.07s-.2,6.2-3.77,6.43c-1.79.11-3.7.44-5.26-1l-.51-.39a38.89,38.89,0,0,1-3.31-2.66c-3.63-3.62-7.75-4.35-12.42-2.33a11.29,11.29,0,0,1-1.44.39c-3.79,1.29-7.53,2.8-11.39,3.85C82.81,116,81.1,119.91,83,124.82c6.83,5.22,14.48,8.51,23.09,9a10,10,0,0,1,7.73,4c2.73,3.41,5.39,6.88,8.08,10.33a7.3,7.3,0,0,0,.62.72,64,64,0,0,1,11.92,2.27c5.65,0,11.3,0,16.94,0,7.85-20.45,22-33.78,43.67-39.19a58.12,58.12,0,0,1,12.56-1.71A187.92,187.92,0,0,1,219.8,92c2.64-2.9,6.4-3.93,9.66-5.78,1.12-.63,1.26.32,1.56,1a94.84,94.84,0,0,1,4.8,11.9c.74,2.48,1.47,5,2.21,7.44a67.76,67.76,0,0,1,2.79,12.6,61,61,0,0,1,17.09,15.57q1.8,2.42,3.38,5a61.05,61.05,0,0,1,5.39,11.51q.42-3.3.68-6.65A138.43,138.43,0,0,0,264.67,104.74Z"/><path class="cls-2" d="M210.69,127.29a12.63,12.63,0,0,1-1.32-4.17c-20.46,1.37-38.89,14.48-46.26,33.26.59,0,1.18,0,1.76.05,8.37-17.13,26.95-28.31,46.7-27.49C211.27,128.39,211,127.85,210.69,127.29Zm12.68,99.47a30.17,30.17,0,0,0-10.47.9c-10,2.51-20.13-1.14-29-6.71a3.43,3.43,0,0,1-.33-.24,6.3,6.3,0,0,0,1.69,1.69c9.56,6,20.56,9.95,31.3,7.24a36.62,36.62,0,0,1,4.67-.88,28.9,28.9,0,0,1,12.1,1A27.58,27.58,0,0,0,223.37,226.76Zm-84.6,34.61a48.29,48.29,0,0,1-24.79.8c-4.89-1.13-8.62-.62-12.56,2.32-1.23.92-2.5,1.78-3.79,2.61.53.17,1.05.33,1.58.48,3.23-1.51,6.53-1.61,10.56-.68a52.24,52.24,0,0,0,38.44-6Q143.54,261.32,138.77,261.37Zm126.84-77.08a53.52,53.52,0,0,0,.28-6.46,56.58,56.58,0,0,0-5.44-23.47,54.6,54.6,0,0,0-2.69-5.06,56.89,56.89,0,0,0-27.18-23.24h0a55.77,55.77,0,0,0-21.27-4.14,54.2,54.2,0,0,0-12.9,1.61c-18.85,4.71-31.54,15.87-39,32.88a78.13,78.13,0,0,0-3.35,9c-1.17-.55-2-.9-2.73-1.28-13.56-6.82-28.08-8.32-41.26-5a55.51,55.51,0,0,0-30.54,20.33,57.11,57.11,0,0,0-9.26,17.8c-4.65,14.95-2.69,31.18,5.67,45.46.73,1.26,1.52,2.51,2.35,3.73,1.21,1.77,2.52,3.51,3.93,5.2.34.41.68.81,1,1.21a7.78,7.78,0,0,1,1.58,4.46,7.29,7.29,0,0,1-.13,2.12c-.19.82-.39,1.65-.61,2.47-1.35,5.12-3.19,10.12-4.48,15.26-.51,2,.13,4.34.25,6.51,2.12-.38,4.54-.23,6.29-1.25,6.26-3.65,12.14-8,18.47-11.45a14.08,14.08,0,0,1,3.13-1.23,12.38,12.38,0,0,1,5.31-.31,56.78,56.78,0,0,0,65-37.72c.51-1.49,1.07-3,1.61-4.43,17.37,6.83,19.68,7.72,35.55,6.64,2.44-.16,5.2-.38,8.38-.62a8,8,0,0,1,4.4,1.45l1.94,1.21.16.1c6.05,3.78,12,7.72,18.16,11.38a5.33,5.33,0,0,0,1.61.58c1.23.25,2.6.24,3.84.45.27-2,1.12-4.1.69-5.92A141.41,141.41,0,0,0,249.4,226c-1.51-4-1-6.7,2.1-10A54.67,54.67,0,0,0,265.61,184.29Zm-176-5.7a49.54,49.54,0,0,1,27.3-13.73,48.78,48.78,0,0,1,35.1,7.9,50,50,0,0,1,21.67,35.72,49.66,49.66,0,0,1-34.91,52.89,48.29,48.29,0,0,1-24.79.8c-4.89-1.13-8.62-.62-12.56,2.32-1.23.92-2.5,1.78-3.79,2.61-2.8,1.81-5.69,3.47-8.51,5.25l-1.78-.48a27.9,27.9,0,0,0,3.58-7.08,18,18,0,0,0-.48-12.53A45.79,45.79,0,0,0,83.5,241C68.83,222.32,72.59,195.39,89.61,178.59ZM181,215.92a63.15,63.15,0,0,0-1.65-15.14,57.57,57.57,0,0,0-16.78-28.68,6.31,6.31,0,0,1-1.48-4.39,4.28,4.28,0,0,1,.08-.65,45.58,45.58,0,0,1,3.66-10.63c8.37-17.13,26.95-28.31,46.7-27.49a47.42,47.42,0,0,1,4.86.44,49.32,49.32,0,0,1,28.95,15.22,49.86,49.86,0,0,1,12.41,23.27,45.9,45.9,0,0,1,1,13.32c-.92,13.08-5.88,24.27-15.46,33.17-2.89,2.68-3.38,5.13-2.17,8.59.09.26.18.52.26.78,1.28,3.76,2.36,7.64,3.75,12.3.16.51.31,1,.47,1.55a56,56,0,0,1-4.94-3,48.13,48.13,0,0,0-5.44-3.75c-.64-.38-1.29-.74-1.94-1.06a27.58,27.58,0,0,0-10-3,30.17,30.17,0,0,0-10.47.9c-10,2.51-20.13-1.14-29-6.71a3.43,3.43,0,0,1-.33-.24A7,7,0,0,1,181,215.92Zm-42.27,45.45a48.29,48.29,0,0,1-24.79.8c-4.89-1.13-8.62-.62-12.56,2.32-1.23.92-2.5,1.78-3.79,2.61.53.17,1.05.33,1.58.48,3.23-1.51,6.53-1.61,10.56-.68a52.24,52.24,0,0,0,38.44-6Q143.54,261.32,138.77,261.37Zm84.6-34.61a30.17,30.17,0,0,0-10.47.9c-10,2.51-20.13-1.14-29-6.71a3.43,3.43,0,0,1-.33-.24,6.3,6.3,0,0,0,1.69,1.69c9.56,6,20.56,9.95,31.3,7.24a36.62,36.62,0,0,1,4.67-.88,28.9,28.9,0,0,1,12.1,1A27.58,27.58,0,0,0,223.37,226.76Zm-12.68-99.47a12.63,12.63,0,0,1-1.32-4.17c-20.46,1.37-38.89,14.48-46.26,33.26.59,0,1.18,0,1.76.05,8.37-17.13,26.95-28.31,46.7-27.49C211.27,128.39,211,127.85,210.69,127.29Z"/><path class="cls-1" d="M192.6,158.53a3.77,3.77,0,0,1,2-.53h12a3.83,3.83,0,0,0,3.84-3.63,1.62,1.62,0,0,0,0-.22V154a3.85,3.85,0,0,0-3.85-3.85h-21a3.86,3.86,0,0,0-3.86,3.85v36.71a3.85,3.85,0,0,0,3.47,3.83h0l.38,0h21a3.87,3.87,0,0,0,3.85-3.85v-.13a3.85,3.85,0,0,0-3.85-3.85h-12a3.85,3.85,0,0,1-3.85-3.86V180a3.83,3.83,0,0,1,2.25-3.5,3.71,3.71,0,0,1,1.6-.35h8.1a3.8,3.8,0,0,0,2.72-1.13,3.81,3.81,0,0,0,1.13-2.73,3.85,3.85,0,0,0-3.85-3.85h-8.1a3.85,3.85,0,0,1-3.85-3.85v-2.68A3.85,3.85,0,0,1,192.6,158.53Z"/><path class="cls-1" d="M233.93,161.14a14,14,0,0,0-4.4.89,22.83,22.83,0,0,0-3.76,1.72,1.83,1.83,0,0,0-1.83-1.83h-5a1.83,1.83,0,0,0-1.83,1.83v29a1.82,1.82,0,0,0,1.83,1.82H224a1.79,1.79,0,0,0,1.39-.65,1.73,1.73,0,0,0,.44-1.17V171.45a1.82,1.82,0,0,1,1.29-1.75,19.65,19.65,0,0,1,3.41-.66c.42,0,.84-.06,1.25-.06,4.24,0,4.9,3.2,4.9,8.16v15.62a1.82,1.82,0,0,0,1.83,1.82h5.09a1.79,1.79,0,0,0,1.39-.65,1.73,1.73,0,0,0,.44-1.17V176.88C245.43,166.89,243.08,161.14,233.93,161.14Z"/><path class="cls-1" d="M133.89,200.14a8.08,8.08,0,0,1-.24,1.65,16.88,16.88,0,0,1-.63,2.11,13.83,13.83,0,0,1-.9,1.93,2.31,2.31,0,0,1-1,1.07,54.34,54.34,0,0,0-7.42,3.22,30.84,30.84,0,0,0-5.56,3.7,15.56,15.56,0,0,0-3.48,4.12,9,9,0,0,0-1.2,4.42,8.26,8.26,0,0,0,4.48,7.47q4.49,2.64,13.27,3.17c1.39.1,2.71.15,3.95.15s2.36,0,3.33-.07,1.77-.1,2.41-.15,1.06-.07,1.27-.07a.47.47,0,0,1,.46.27,2.56,2.56,0,0,1,.13,1,4.18,4.18,0,0,1-.14,1.32.81.81,0,0,1-.47.47c-.89.43-1.91.9-3.06,1.4s-2.34,1-3.54,1.38-2.38.77-3.53,1.06a12.94,12.94,0,0,1-3,.42,30.87,30.87,0,0,1-9.5-1.26,16.7,16.7,0,0,1-6.19-3.41,12.45,12.45,0,0,1-3.35-5,18,18,0,0,1-1-6,19.1,19.1,0,0,1,.56-4.68,20.78,20.78,0,0,1,1.51-4.21,21.5,21.5,0,0,1,2.19-3.58,17,17,0,0,1,2.59-2.73,12.74,12.74,0,0,1-2.41-1.56,11.64,11.64,0,0,1-1.94-2,9.12,9.12,0,0,1-1.31-2.25,6.42,6.42,0,0,1-.49-2.42,12.14,12.14,0,0,1,.83-4.26,15,15,0,0,1,2.26-4,12.64,12.64,0,0,1,3.38-3,7.84,7.84,0,0,1,4.2-1.19,9.69,9.69,0,0,1,2.43.29,10.59,10.59,0,0,1,2.06.79,14.31,14.31,0,0,1,1.79,1.14c.56.42,1.09.84,1.6,1.28a2.62,2.62,0,0,1,.77,1,5.06,5.06,0,0,1,.2,1.66c0,.94-.24,1.41-.73,1.41a1.85,1.85,0,0,1-.81-.31c-.36-.2-.79-.43-1.29-.67a14.14,14.14,0,0,0-1.65-.68,5.87,5.87,0,0,0-1.87-.31,9.72,9.72,0,0,0-2.63.38,15.11,15.11,0,0,0-2.53,1,12,12,0,0,0-2.1,1.34,6.53,6.53,0,0,0-1.38,1.44,2.08,2.08,0,0,0,.43,1.2,6.41,6.41,0,0,0,1.1,1.21,12.68,12.68,0,0,0,1.5,1.11,14.22,14.22,0,0,0,1.63.92,14.65,14.65,0,0,0,1.48.61,3.54,3.54,0,0,0,1.09.24,4,4,0,0,0,1.82-.5c.65-.33,1.35-.66,2.09-1l7.17-2.91c.55-.22.92-.24,1.12-.08A1.32,1.32,0,0,1,133.89,200.14Z"/></g></g></svg>