<svg xmlns="http://www.w3.org/2000/svg" viewBox="0 0 155.59 27.84"><defs><style>.cls-1{fill:#fff;}</style></defs><g id="Layer_2" data-name="Layer 2"><g id="Layer_1-2" data-name="Layer 1"><path class="cls-1" d="M0,8.84A9.12,9.12,0,0,1,.66,5.37,8.47,8.47,0,0,1,2.5,2.57,8.72,8.72,0,0,1,5.26.69,8.48,8.48,0,0,1,8.69,0H26.23a1.35,1.35,0,0,1,.51.13.54.54,0,0,1,.31.55V5.79a.55.55,0,0,1-.25.48.93.93,0,0,1-.52.16H8.49A1.58,1.58,0,0,0,7.17,7,2.35,2.35,0,0,0,6.7,8.53,2.52,2.52,0,0,0,7.14,10a1.51,1.51,0,0,0,1.35.64H17c.85,0,1.74,0,2.69.06a17.8,17.8,0,0,1,2.82.34,12,12,0,0,1,2.66.85,7.15,7.15,0,0,1,2.23,1.6,7.71,7.71,0,0,1,1.57,2.61,9.12,9.12,0,0,1-.18,6.38,8.11,8.11,0,0,1-1.89,2.8,8.71,8.71,0,0,1-3,1.86,11.11,11.11,0,0,1-4,.68H2.11a.72.72,0,0,1-.79-.7V22.06a.81.81,0,0,1,.21-.45.7.7,0,0,1,.58-.26H20.85a1.64,1.64,0,0,0,.78-.19,2.18,2.18,0,0,0,.63-.5,2.46,2.46,0,0,0,.43-.72,2.39,2.39,0,0,0,.16-.82,1.47,1.47,0,0,0-.24-.81,2.08,2.08,0,0,0-.6-.62,3.38,3.38,0,0,0-.81-.39,2.55,2.55,0,0,0-.82-.15h-11q-4.62,0-7-2.14A7.87,7.87,0,0,1,0,8.84Z"/><path class="cls-1" d="M30.42,27.08a.52.52,0,0,1,.09-.21.19.19,0,0,0,0-.09.23.23,0,0,1,.07-.11,7.48,7.48,0,0,1,.44-.8l.65-1.22c.25-.48.54-1,.88-1.6L34.79,19c.81-1.51,1.65-3.06,2.54-4.67s1.74-3.19,2.59-4.77,1.63-3,2.32-4.29L44,2,44.9.38a1.05,1.05,0,0,1,.24-.29A.69.69,0,0,1,45.55,0H49.4a.79.79,0,0,1,.42.12.56.56,0,0,1,.25.26c.12.24.42.79.9,1.66S52,4,52.74,5.29l2.34,4.28,2.57,4.76L60.2,19c.82,1.51,1.56,2.85,2.2,4,.32.59.6,1.13.86,1.62s.48.9.67,1.23a8,8,0,0,0,.44.8l.06.11a.23.23,0,0,1,0,.09s.06.07.06.1a.26.26,0,0,0,0,.11s0,.07,0,.08a.57.57,0,0,1-.24.5.83.83,0,0,1-.53.18H58.06a.71.71,0,0,1-.43-.12.67.67,0,0,1-.22-.26L47.52,9.25,37.65,27.46a.72.72,0,0,1-.68.38H31.19a.85.85,0,0,1-.55-.18.61.61,0,0,1-.22-.5Z"/><path class="cls-1" d="M67.52.26A.7.7,0,0,1,68.1,0h5.11a.68.68,0,0,1,.6.25A.79.79,0,0,1,74,.7v10H89.19V.7a.8.8,0,0,1,.17-.48A.68.68,0,0,1,89.92,0H95a.68.68,0,0,1,.6.25.79.79,0,0,1,.2.46V27.14a.79.79,0,0,1-.18.47.74.74,0,0,1-.62.23H89.92a.8.8,0,0,1-.41-.09.62.62,0,0,1-.22-.2.59.59,0,0,1-.09-.24,1.14,1.14,0,0,1,0-.15v-10H74v10a.77.77,0,0,1-.18.45.71.71,0,0,1-.59.23H68.07a.68.68,0,0,1-.58-.23.77.77,0,0,1-.18-.45V.71A.81.81,0,0,1,67.52.26Z"/><path class="cls-1" d="M100.83.23a.75.75,0,0,1,.6-.23h5a.68.68,0,0,1,.58.23.77.77,0,0,1,.18.45V21.44h12.72a.7.7,0,0,1,.6.25.81.81,0,0,1,.19.45v5a.79.79,0,0,1-.18.47.74.74,0,0,1-.61.23H101.43a.72.72,0,0,1-.61-.23.79.79,0,0,1-.18-.47V.71A.75.75,0,0,1,100.83.23Z"/><path class="cls-1" d="M121.43,27.08a.52.52,0,0,1,.09-.21.19.19,0,0,0,0-.09.23.23,0,0,1,.07-.11,7.48,7.48,0,0,1,.44-.8l.65-1.22c.25-.48.54-1,.88-1.6L125.79,19c.82-1.51,1.66-3.06,2.55-4.67s1.74-3.19,2.59-4.77,1.63-3,2.32-4.29L135,2l.89-1.65a1.05,1.05,0,0,1,.24-.29.69.69,0,0,1,.41-.09h3.84a.8.8,0,0,1,.43.12.56.56,0,0,1,.25.26c.12.24.42.79.9,1.66s1.07,2,1.77,3.25l2.34,4.28,2.57,4.76L151.21,19c.82,1.51,1.56,2.85,2.2,4,.32.59.6,1.13.86,1.62s.48.9.67,1.23a8,8,0,0,0,.44.8l.06.11a.23.23,0,0,1,0,.09s.06.07.06.1a.26.26,0,0,0,0,.11s0,.07,0,.08a.57.57,0,0,1-.24.5.83.83,0,0,1-.53.18h-5.75a.71.71,0,0,1-.43-.12.59.59,0,0,1-.22-.26L138.53,9.25l-9.87,18.21a.72.72,0,0,1-.68.38H122.2a.85.85,0,0,1-.55-.18.61.61,0,0,1-.22-.5Z"/></g></g></svg>