<svg xmlns="http://www.w3.org/2000/svg" viewBox="0 0 155.59 157.25"><defs><style>.cls-1{fill:#fff;}.cls-2{fill:#f3be11;}.cls-3{fill:#d1d1d3;}</style></defs><g id="Layer_2" data-name="Layer 2"><g id="Layer_1-2" data-name="Layer 1"><path class="cls-1" d="M0,124.83a9.07,9.07,0,0,1,.66-3.46,8.51,8.51,0,0,1,1.84-2.81,8.88,8.88,0,0,1,2.76-1.88A8.48,8.48,0,0,1,8.69,116H26.23a1.4,1.4,0,0,1,.51.14.54.54,0,0,1,.31.54v5.11a.53.53,0,0,1-.25.48,1,1,0,0,1-.52.17H8.49a1.55,1.55,0,0,0-1.32.61,2.33,2.33,0,0,0-.47,1.49A2.49,2.49,0,0,0,7.14,126a1.51,1.51,0,0,0,1.35.64H17c.85,0,1.74,0,2.69.06a19,19,0,0,1,2.82.34,12,12,0,0,1,2.66.86,7,7,0,0,1,2.23,1.6,7.58,7.58,0,0,1,1.57,2.6,9.14,9.14,0,0,1-.18,6.39,8.07,8.07,0,0,1-1.89,2.79,8.73,8.73,0,0,1-3,1.87,11.11,11.11,0,0,1-4,.67H2.11a.72.72,0,0,1-.79-.7v-5.08a.76.76,0,0,1,.21-.44.68.68,0,0,1,.58-.27H20.85a1.64,1.64,0,0,0,.78-.19,2,2,0,0,0,.63-.5,2.43,2.43,0,0,0,.59-1.54,1.47,1.47,0,0,0-.24-.81,1.94,1.94,0,0,0-.6-.61,3.06,3.06,0,0,0-.81-.4,2.55,2.55,0,0,0-.82-.15h-11q-4.62,0-7-2.14A7.86,7.86,0,0,1,0,124.83Z"/><path class="cls-1" d="M30.42,143.07a.45.45,0,0,1,.09-.2.19.19,0,0,0,0-.09.25.25,0,0,1,.07-.12,6.67,6.67,0,0,1,.44-.79l.65-1.22c.25-.48.54-1,.88-1.6q1-1.8,2.19-4.05c.81-1.51,1.65-3.07,2.54-4.67s1.74-3.2,2.59-4.78,1.63-3,2.32-4.28L44,118c.48-.88.77-1.43.89-1.64a1,1,0,0,1,.24-.3.69.69,0,0,1,.41-.09H49.4a.79.79,0,0,1,.42.12.58.58,0,0,1,.25.27L51,118l1.77,3.24q1.07,1.93,2.34,4.29t2.57,4.76Q59,132.73,60.2,135c.82,1.5,1.56,2.84,2.2,4l.86,1.61c.25.49.48.9.67,1.24a8.81,8.81,0,0,0,.44.79l.06.12a.23.23,0,0,1,0,.09.14.14,0,0,1,.06.1.22.22,0,0,0,0,.1.12.12,0,0,0,0,.09.58.58,0,0,1-.24.5.82.82,0,0,1-.53.17H58.06a.71.71,0,0,1-.43-.11.69.69,0,0,1-.22-.27l-9.89-18.2-9.87,18.2a.7.7,0,0,1-.68.38H31.19a.84.84,0,0,1-.55-.17.62.62,0,0,1-.22-.5Z"/><path class="cls-1" d="M67.52,116.26a.68.68,0,0,1,.58-.27h5.11a.71.71,0,0,1,.6.25.79.79,0,0,1,.2.46v10H89.19v-10a.81.81,0,0,1,.17-.49.71.71,0,0,1,.56-.22H95a.71.71,0,0,1,.6.25.79.79,0,0,1,.2.46v26.43a.77.77,0,0,1-.18.47.72.72,0,0,1-.62.23H89.92a.93.93,0,0,1-.41-.08.64.64,0,0,1-.22-.21.61.61,0,0,1-.09-.23,1.14,1.14,0,0,1,0-.15v-10H74v10a.74.74,0,0,1-.18.44.68.68,0,0,1-.59.23H68.07a.66.66,0,0,1-.58-.23.74.74,0,0,1-.18-.44V116.7A.76.76,0,0,1,67.52,116.26Z"/><path class="cls-1" d="M100.83,116.23a.73.73,0,0,1,.6-.24h5a.66.66,0,0,1,.58.24.74.74,0,0,1,.18.44v20.76h12.72a.73.73,0,0,1,.6.25.84.84,0,0,1,.19.46v5a.77.77,0,0,1-.18.47.71.71,0,0,1-.61.23H101.43a.69.69,0,0,1-.61-.23.77.77,0,0,1-.18-.47V116.7A.73.73,0,0,1,100.83,116.23Z"/><path class="cls-1" d="M121.43,143.07a.45.45,0,0,1,.09-.2.19.19,0,0,0,0-.09.25.25,0,0,1,.07-.12,6.67,6.67,0,0,1,.44-.79l.65-1.22c.25-.48.54-1,.88-1.6q1-1.8,2.18-4.05c.82-1.51,1.66-3.07,2.55-4.67s1.74-3.2,2.59-4.78,1.63-3,2.32-4.28L135,118c.48-.88.77-1.43.89-1.64a1,1,0,0,1,.24-.3.69.69,0,0,1,.41-.09h3.84a.8.8,0,0,1,.43.12.58.58,0,0,1,.25.27L142,118l1.77,3.24q1.06,1.93,2.34,4.29t2.57,4.76q1.32,2.4,2.55,4.67c.82,1.5,1.56,2.84,2.2,4l.86,1.61c.25.49.48.9.67,1.24a8.81,8.81,0,0,0,.44.79l.06.12a.23.23,0,0,1,0,.09.14.14,0,0,1,.06.1.22.22,0,0,0,0,.1.12.12,0,0,0,0,.09.58.58,0,0,1-.24.5.82.82,0,0,1-.53.17h-5.75a.71.71,0,0,1-.43-.11.61.61,0,0,1-.22-.27l-9.89-18.2-9.87,18.2a.7.7,0,0,1-.68.38H122.2a.84.84,0,0,1-.55-.17.62.62,0,0,1-.22-.5Z"/><path class="cls-2" d="M123,23.56,89.38,3.23a22.36,22.36,0,0,0-23.16,0L32.57,23.56A22.39,22.39,0,0,0,21.75,42.72V82.65a22.4,22.4,0,0,0,22.4,22.4h67.29a22.4,22.4,0,0,0,22.4-22.4V42.72A22.4,22.4,0,0,0,123,23.56ZM52.39,50a25.41,25.41,0,1,1,50.81,0V71.75a6.64,6.64,0,0,1-13.28,0V50a12.13,12.13,0,1,0-24.25,0V71.75a6.64,6.64,0,0,1-13.28,0ZM122,69.64A25.4,25.4,0,0,1,77.79,86.75,25.39,25.39,0,0,1,33.62,69.64V47.91a6.64,6.64,0,0,1,13.28,0V69.64a12.13,12.13,0,1,0,24.25,0V47.91a6.64,6.64,0,0,1,13.28,0V69.64a12.13,12.13,0,0,0,24.26,0V47.91a6.64,6.64,0,0,1,13.28,0Z"/><path class="cls-3" d="M18,157.11v-5.68h1l1.79,4.78,1.8-4.78h1v5.68h-.72v-4.72h0l-1.78,4.72h-.64l-1.78-4.72h0v4.72Z"/><path class="cls-3" d="M24.24,157.11l2.22-5.68h.83l2.22,5.68h-.83l-.62-1.71H25.65L25,157.11Zm1.65-2.35h1.93l-.95-2.64h0Z"/><path class="cls-3" d="M30.1,157.11v-5.68h.76v5.68Z"/><path class="cls-3" d="M32.12,157.11v-5.68h.81l3,4.61h0v-4.61h.71v5.68h-.83l-3-4.56h0v4.56Z"/><path class="cls-3" d="M39.17,157.11v-5h-1.9v-.64h4.55v.64h-1.9v5Z"/><path class="cls-3" d="M42.44,157.11v-5.68h3.93v.64H43.2v1.8h2.95v.64H43.2v2h3.19v.63Z"/><path class="cls-3" d="M47.3,157.11v-5.68h.8l3,4.61h0v-4.61h.72v5.68H51l-3-4.56h0v4.56Z"/><path class="cls-3" d="M52.37,157.11l2.23-5.68h.83l2.22,5.68h-.84l-.62-1.71h-2.4l-.64,1.71ZM54,154.76H56l-1-2.64h0Z"/><path class="cls-3" d="M58.2,157.11v-5.68H59L62,156h0v-4.61h.72v5.68H61.9l-3-4.56h0v4.56Z"/><path class="cls-3" d="M63.67,154.29a3.21,3.21,0,0,1,.72-2.15,2.44,2.44,0,0,1,2-.84,2.55,2.55,0,0,1,1.57.48,1.91,1.91,0,0,1,.77,1.36H68a1.45,1.45,0,0,0-.55-.9,1.81,1.81,0,0,0-1.05-.31,1.67,1.67,0,0,0-1.44.67,2.69,2.69,0,0,0-.48,1.63,2.84,2.84,0,0,0,.48,1.71,1.67,1.67,0,0,0,1.45.67,1.5,1.5,0,0,0,1.16-.46A1.79,1.79,0,0,0,68,155h.76a2.63,2.63,0,0,1-.75,1.68,2.38,2.38,0,0,1-1.71.6,2.4,2.4,0,0,1-2-.83A3.26,3.26,0,0,1,63.67,154.29Z"/><path class="cls-3" d="M69.7,157.11v-5.68h3.92v.64H70.45v1.8h3v.64h-3v2h3.19v.63Z"/><path class="cls-3" d="M76.8,157.11v-5.68h.76v5.68Z"/><path class="cls-3" d="M82.83,153.09h-.71a1.23,1.23,0,0,0-1.41-1.16,1.68,1.68,0,0,0-.91.23.81.81,0,0,0-.36.74.6.6,0,0,0,.2.47,1.23,1.23,0,0,0,.52.28l.71.18a6.66,6.66,0,0,1,.77.19,3.49,3.49,0,0,1,.71.27,1.23,1.23,0,0,1,.52.49,1.36,1.36,0,0,1,.2.77,1.38,1.38,0,0,1-.35,1,1.78,1.78,0,0,1-.83.56,3.19,3.19,0,0,1-1,.17,2.67,2.67,0,0,1-1.68-.51,1.78,1.78,0,0,1-.66-1.5h.71a1.18,1.18,0,0,0,.48,1,1.9,1.9,0,0,0,1.18.35,2,2,0,0,0,1-.24.84.84,0,0,0,.42-.79.76.76,0,0,0-.38-.67,2.81,2.81,0,0,0-.9-.34c-.36-.07-.72-.14-1.07-.23a2.07,2.07,0,0,1-.92-.47,1.2,1.2,0,0,1-.37-.91,1.41,1.41,0,0,1,.61-1.24,2.46,2.46,0,0,1,1.45-.42,2.32,2.32,0,0,1,1.49.45A1.66,1.66,0,0,1,82.83,153.09Z"/><path class="cls-3" d="M86.18,155.73a3.7,3.7,0,0,1,0-2.92,2.48,2.48,0,0,1,.92-1.09,2.89,2.89,0,0,1,3,0,2.57,2.57,0,0,1,.93,1.09,3.82,3.82,0,0,1,0,2.92,2.74,2.74,0,0,1-3.93,1.09A2.48,2.48,0,0,1,86.18,155.73Zm.65-2.58a3.18,3.18,0,0,0-.19,1.12,3.14,3.14,0,0,0,.19,1.12,2,2,0,0,0,.65.87,1.82,1.82,0,0,0,1.12.35,1.8,1.8,0,0,0,1.12-.35,2,2,0,0,0,.65-.87,3.14,3.14,0,0,0,.2-1.12,3.18,3.18,0,0,0-.2-1.12,1.88,1.88,0,0,0-.65-.86,1.75,1.75,0,0,0-1.12-.36,1.77,1.77,0,0,0-1.12.36A2,2,0,0,0,86.83,153.15Z"/><path class="cls-3" d="M96.78,151.43v3.63a2.14,2.14,0,0,1-.58,1.63,2.3,2.3,0,0,1-1.65.56,2.49,2.49,0,0,1-1.73-.54,2.11,2.11,0,0,1-.6-1.65v-3.63H93v3.63a1.54,1.54,0,0,0,.41,1.15,1.58,1.58,0,0,0,1.17.4,1.43,1.43,0,0,0,1.1-.4,1.61,1.61,0,0,0,.38-1.15v-3.63Z"/><path class="cls-3" d="M98,157.11v-5.68h2.68a1.85,1.85,0,0,1,1.26.4,1.36,1.36,0,0,1,.46,1.09,1.68,1.68,0,0,1-.24.92,1.19,1.19,0,0,1-.74.52h0a.92.92,0,0,1,.62.38,2.18,2.18,0,0,1,.23.79c0,.05,0,.16,0,.33s0,.29,0,.36a2.75,2.75,0,0,0,0,.31,1.31,1.31,0,0,0,.09.33,1,1,0,0,0,.15.24h-.84a.53.53,0,0,1-.12-.32c0-.15,0-.33,0-.54a2.68,2.68,0,0,0,0-.54,2.81,2.81,0,0,0-.08-.4,1.25,1.25,0,0,0-.15-.31.53.53,0,0,0-.27-.24,1.18,1.18,0,0,0-.45-.07H98.75v2.42Zm.76-3.06h1.57a1.75,1.75,0,0,0,1-.22.85.85,0,0,0,.36-.79,1,1,0,0,0-.25-.71,1,1,0,0,0-.76-.26H98.75Z"/><path class="cls-3" d="M105.67,157.11v-5.68h1l1.79,4.78,1.79-4.78h1v5.68h-.72v-4.72h0l-1.78,4.72h-.64l-1.78-4.72h0v4.72Z"/><path class="cls-3" d="M112.62,157.11v-5.68h.75v5.68Z"/><path class="cls-3" d="M118.65,153.09h-.72a1.22,1.22,0,0,0-1.41-1.16,1.71,1.71,0,0,0-.91.23.81.81,0,0,0-.36.74.63.63,0,0,0,.2.47,1.29,1.29,0,0,0,.52.28l.71.18a7.38,7.38,0,0,1,.78.19,3.73,3.73,0,0,1,.71.27,1.29,1.29,0,0,1,.52.49,1.45,1.45,0,0,1,.2.77,1.43,1.43,0,0,1-.35,1,1.83,1.83,0,0,1-.83.56,3.19,3.19,0,0,1-1,.17,2.72,2.72,0,0,1-1.69-.51,1.78,1.78,0,0,1-.66-1.5H115a1.19,1.19,0,0,0,.47,1,1.9,1.9,0,0,0,1.18.35,2,2,0,0,0,1-.24.84.84,0,0,0,.42-.79.75.75,0,0,0-.37-.67,2.79,2.79,0,0,0-.91-.34c-.36-.07-.71-.14-1.07-.23a2,2,0,0,1-.91-.47,1.18,1.18,0,0,1-.38-.91,1.43,1.43,0,0,1,.61-1.24,2.49,2.49,0,0,1,1.46-.42,2.34,2.34,0,0,1,1.49.45A1.66,1.66,0,0,1,118.65,153.09Z"/><path class="cls-3" d="M123.81,153.09h-.72a1.23,1.23,0,0,0-1.41-1.16,1.68,1.68,0,0,0-.91.23.81.81,0,0,0-.36.74.6.6,0,0,0,.2.47,1.23,1.23,0,0,0,.52.28l.71.18a7.38,7.38,0,0,1,.78.19,3.64,3.64,0,0,1,.7.27,1.31,1.31,0,0,1,.53.49,1.44,1.44,0,0,1,.19.77,1.38,1.38,0,0,1-.35,1,1.78,1.78,0,0,1-.83.56,3.19,3.19,0,0,1-1,.17,2.67,2.67,0,0,1-1.68-.51,1.78,1.78,0,0,1-.66-1.5h.71a1.18,1.18,0,0,0,.48,1,1.9,1.9,0,0,0,1.18.35,2,2,0,0,0,1-.24.84.84,0,0,0,.42-.79.76.76,0,0,0-.38-.67,2.81,2.81,0,0,0-.9-.34c-.36-.07-.72-.14-1.07-.23a2.07,2.07,0,0,1-.92-.47,1.2,1.2,0,0,1-.37-.91,1.41,1.41,0,0,1,.61-1.24,2.46,2.46,0,0,1,1.45-.42,2.32,2.32,0,0,1,1.49.45A1.69,1.69,0,0,1,123.81,153.09Z"/><path class="cls-3" d="M125,157.11v-5.68h.76v5.68Z"/><path class="cls-3" d="M127,155.73a3.7,3.7,0,0,1,0-2.92,2.48,2.48,0,0,1,.92-1.09,2.89,2.89,0,0,1,3,0,2.57,2.57,0,0,1,.93,1.09,3.82,3.82,0,0,1,0,2.92,2.74,2.74,0,0,1-3.93,1.09A2.48,2.48,0,0,1,127,155.73Zm.65-2.58a3.18,3.18,0,0,0-.19,1.12,3.14,3.14,0,0,0,.19,1.12,2,2,0,0,0,.66.87,1.77,1.77,0,0,0,1.11.35,1.8,1.8,0,0,0,1.12-.35,2,2,0,0,0,.65-.87,3.14,3.14,0,0,0,.2-1.12,3.18,3.18,0,0,0-.2-1.12,1.88,1.88,0,0,0-.65-.86,1.75,1.75,0,0,0-1.12-.36,1.72,1.72,0,0,0-1.11.36A1.91,1.91,0,0,0,127.65,153.15Z"/><path class="cls-3" d="M133.06,157.11v-5.68h.8l3,4.61h0v-4.61h.72v5.68h-.83l-3-4.56h0v4.56Z"/></g></g></svg>