<svg xmlns="http://www.w3.org/2000/svg" viewBox="0 0 112.08 105.05"><defs><style>.cls-1{fill:#f3be11;}</style></defs><g id="Layer_2" data-name="Layer 2"><g id="Layer_1-2" data-name="Layer 1"><path class="cls-1" d="M101.27,23.56,67.62,3.23a22.34,22.34,0,0,0-23.15,0L10.82,23.56A22.39,22.39,0,0,0,0,42.72V82.65a22.4,22.4,0,0,0,22.4,22.4H89.69a22.39,22.39,0,0,0,22.39-22.4V42.72A22.38,22.38,0,0,0,101.27,23.56ZM30.63,50a25.41,25.41,0,0,1,50.82,0V71.75a6.64,6.64,0,0,1-13.28,0V50a12.13,12.13,0,0,0-24.26,0V71.75a6.64,6.64,0,1,1-13.28,0Zm69.59,19.62A25.4,25.4,0,0,1,56,86.75,25.39,25.39,0,0,1,11.87,69.64V47.91a6.64,6.64,0,0,1,13.28,0V69.64a12.13,12.13,0,1,0,24.25,0V47.91a6.64,6.64,0,0,1,13.28,0V69.64a12.13,12.13,0,1,0,24.26,0V47.91a6.64,6.64,0,0,1,13.28,0Z"/></g></g></svg>