<svg id="Layer_1" data-name="Layer 1" xmlns="http://www.w3.org/2000/svg" viewBox="0 0 1080 1080"><defs><style>.cls-1{fill:#2fab99;}.cls-2{fill:#21786b;}</style></defs><path class="cls-1" d="M963,797c-74.5-24.34-146.74-32.17-208.9-32.17-111.2,0-190.09,25.08-191.56,25.55,68-48.71,146.88-62.91,215.74-62.91,96.29,0,173,27.77,173,27.77Z"/><path class="cls-1" d="M923.41,722.32s-51.15-18.26-127.53-18.26a467.84,467.84,0,0,0-239.44,65.43s85.15-102.06,256.56-102a470.72,470.72,0,0,1,81.11,7.25Z"/><path class="cls-1" d="M850.8,642.37s-16.37-.91-41.9.36C740.67,646.1,607,665,545.63,758.45c0,0,45-143.68,263.94-154.51Z"/><path class="cls-1" d="M229.2,642.37s16.37-.91,41.9.36C339.33,646.1,473,665,534.37,758.45c0,0-45-143.68-263.94-154.51Z"/><path class="cls-1" d="M517.47,790.41c-1.47-.47-80.35-25.55-191.56-25.55-62.16,0-134.41,7.84-208.9,32.17l11.72-41.76s76.7-27.77,173-27.77C370.58,727.5,449.46,741.71,517.47,790.41Z"/><path class="cls-1" d="M523.56,769.49a467.79,467.79,0,0,0-239.44-65.43c-76.37,0-127.53,18.26-127.53,18.26l29.3-47.63A470.72,470.72,0,0,1,267,667.44C438.38,667.45,523.56,769.49,523.56,769.49Z"/><path class="cls-2" d="M138.68,711.29l14-22.77A407.79,407.79,0,0,1,130.3,554.86c0-225.91,183.79-409.7,409.7-409.7S949.7,329,949.7,554.86a407.79,407.79,0,0,1-22.39,133.66L945,717.3a436.27,436.27,0,1,0-810,0Z"/><path class="cls-2" d="M871.16,795.84C796.59,898,675.92,964.57,540,964.57S283.42,898,208.84,795.84c-9.66,1.69-19.23,3.62-28.72,5.73A438.31,438.31,0,0,0,370.18,956.84a435.91,435.91,0,0,0,478.31-93.49,437.91,437.91,0,0,0,51.39-61.78Q885.65,798.39,871.16,795.84Z"/><path class="cls-2" d="M381.54,840.12a72.65,72.65,0,0,0-19.87-6.92L350,830.72l-1.73,8.15,11.65,2.48q9.06,1.93,14,4.76a13.28,13.28,0,0,1,6.46,7.41q1.51,4.58,0,11.66L377.49,879l-43-9.15-1.71,8.05,56.37,12L393.8,868q2.1-9.88-1.11-16.71T381.54,840.12Z"/><rect class="cls-2" x="357.85" y="812.46" width="9.62" height="13.82" transform="translate(-514.25 1003.54) rotate(-77.99)"/><rect class="cls-2" x="460.23" y="831.08" width="9.62" height="13.82" transform="translate(-404.13 1241.76) rotate(-85.89)"/><rect class="cls-2" x="480.32" y="832.52" width="9.62" height="13.82" transform="matrix(0.07, -1, 1, 0.07, -386.89, 1263.2)"/><path class="cls-2" d="M613.8,900.3l-34.24.75a40.23,40.23,0,0,1-10.39-1.12,33,33,0,0,1-5.23-1.71,24.62,24.62,0,0,1-2.36,1.15q-5.54,2.19-14.81,2.39l-15.28.34-31.75.69h-3.82l-16.6-1.08-31.52-2.27a4.79,4.79,0,0,1-1.26-.28,3.32,3.32,0,0,1-1.1,0l-17.51-2.25-13.56-1.73,9-70.24L437,826.71l-8,62.06,17.5,2.25a3.92,3.92,0,0,1,.94.23,4.32,4.32,0,0,1,1,0l17.89,1.28,3-41.35,13.65,1-3,41.35,16.52,1.12,3.11,0,18.09-.4-.7-31.44,13.68-.29.69,31.43,15.29-.35a21.1,21.1,0,0,0,7.47-1.15,6.11,6.11,0,0,0,3.44-4,28,28,0,0,0,.84-8.75l-.51-22.7,13.83-.3.5,22.71a28.51,28.51,0,0,1-1.76,11.48,31.93,31.93,0,0,0,3.5,1.32,18.07,18.07,0,0,0,5.46.73l20.59-.46-.43-19.23a33.27,33.27,0,0,0-.62-5c-.39-2.13-.94-4.58-1.64-7.3s-1.51-5.51-2.46-8.33l13.35-1.77c.74,2.36,1.47,4.95,2.23,7.77s1.39,5.54,2,8.1a37.07,37.07,0,0,1,.87,6.23Z"/><path class="cls-2" d="M640.4,832.94l30.38-4.67-.88-5.69-17.18,2.65-.13-.14a4.38,4.38,0,0,1-1.1-2.29,3.91,3.91,0,0,1,1.38-3.62,9.75,9.75,0,0,1,5.18-2.1,18.32,18.32,0,0,1,2.35-.21,8.87,8.87,0,0,1,2.42.28l3.33-5.43a23.13,23.13,0,0,0-4.55-.6,25.42,25.42,0,0,0-5,.27,22.73,22.73,0,0,0-7.71,2.59,15.71,15.71,0,0,0-5.39,4.64,7.52,7.52,0,0,0-1.43,5.64,6.69,6.69,0,0,0,.9,2.47l-3.42.52Z"/><polygon class="cls-2" points="690.04 818.09 699.54 879.94 670.77 884.36 663.39 836.33 649.87 838.4 657.25 886.44 634.87 889.88 636.12 898.01 714.31 886 703.55 816.01 690.04 818.09"/><rect class="cls-2" x="734.09" y="807.08" width="13.67" height="70.81" transform="matrix(0.97, -0.26, 0.26, 0.97, -192, 219.26)"/><path class="cls-2" d="M793.5,394.24V483.5l-74.26,37.66L708.55,481c-8.89-33.25-31.43-60.44-61.87-74.64a250.69,250.69,0,0,0-79.42-22.23q-7.11-31.59-15.15-62.8L540,274.48l-12.12,46.87q-8.07,31.22-15.15,62.9a251.45,251.45,0,0,0-75.54,20.83,116,116,0,0,0-64.62,76l-10.84,40.59L215.24,447.4,540,205.15Z"/><polygon class="cls-2" points="811.22 474.53 864.76 447.39 811.22 407.46 811.22 474.53"/><polygon class="cls-2" points="802.36 496.66 787.87 552.15 816.86 552.15 802.36 496.66"/><path class="cls-2" d="M540,717.3a209.09,209.09,0,0,1,13.16-64.79,186.31,186.31,0,0,1,36.65-60.15q-3.75-32.46-8.78-66.25a1970.81,1970.81,0,0,0-41-201.63,1970.81,1970.81,0,0,0-41,201.63q-1.28,8.49-2.45,16.89a110.76,110.76,0,0,1,32.39,35.39,69.79,69.79,0,0,0-22.82-12,67.72,67.72,0,0,0-12.38-2.58q-.93,7.13-1.82,14.36t-1.7,14.23a186.5,186.5,0,0,1,36.64,60.15A209.16,209.16,0,0,1,540,717.3Z"/></svg>