<svg xmlns="http://www.w3.org/2000/svg" viewBox="0 0 454.5 375.52"><defs><style>.cls-1{fill:#2a8cbf;}.cls-2{fill:#f3be16;}</style></defs><g id="Layer_2" data-name="Layer 2"><g id="Layer_2-2" data-name="Layer 2"><path class="cls-1" d="M347.6,147.06a68.44,68.44,0,0,0-16.46-31.17,63,63,0,0,0-42.36-20.22c-27.94-2-55.87-.23-83.77,1.53a135.8,135.8,0,0,0-20.19,3.21c-6.09,1.66-12.27,3-18.24,5-12.65,4.25-25.22,9-34.66,18.92-13.29,14-15.49,31.82-16.13,50-.26,7.23.46,14.5.37,21.75a81.06,81.06,0,0,0,3.33,23.26c6.82,24.2,24.36,37.1,47.26,44.12a90.58,90.58,0,0,0,19.41,3.42c4.24.33,8.51.35,12.73.61,6,.37,11.93.82,17.9,1.21,6.91.45,13.79.82,20.71.74s13.87-.32,20.8-.23c4.44.05,8.86.47,13.28.81,13.06,1,26.17,1.62,38.94,5.07,4.72,1.27,8.84,3.69,13.17,5.72a147,147,0,0,0,21-46.55C351.87,205.5,354.62,176.38,347.6,147.06Zm-113,99.2h-.27c-6,0-11-4.73-11-11.83a11.38,11.38,0,1,1,22.75,0C246,241.53,241,246.26,234.57,246.26Zm20.12-81.4c-6.31,4.87-21.7,13.28-21.7,22.23a15.25,15.25,0,0,0,2.63,8.39,27.26,27.26,0,0,0,2.87,3.56c1.36,1.47,3.44,2.36,2.52,4.79a3,3,0,0,1-3.07,2.17c-1.85-.05-4-1.27-5.38-2.08a46.26,46.26,0,0,1-5.79-4,32.86,32.86,0,0,1-9.4-11.23,17.11,17.11,0,0,1-1.74-7.25c0-7,4.21-12.89,16.83-22.09,7.76-5.39,19.73-13,19.73-20.25,0-6.31-4.08-10-11.18-10-12.62,0-20.64,11.31-23.14,11.31-2.9,0-8.81-4.47-8.81-9.33,0-3.16,1.57-5,4.2-7.5,6.32-5.39,15.39-7.49,18.81-7.49h.13c16.57,0,32.22,15.12,32.22,31.16C264.42,154.21,261.79,159.21,254.69,164.86Z"/><path class="cls-1" d="M369.81,157.26a108,108,0,0,0-3.05-14,85.37,85.37,0,0,0-4.83-12.76,69.47,69.47,0,0,0-6.69-11.26,60.57,60.57,0,0,0-19.36-17.17A67.67,67.67,0,0,0,323,96.6c-2.4-.75-4.83-1.37-7.29-1.88-6.68-1.39-13.39-2.82-20.21-1.46l-.29.06a4.9,4.9,0,0,0-1.46.47c-.09,0-.18.11-.2.2s.21.29.39.31a70.62,70.62,0,0,1,7.36,1.52q1.69.45,3.36,1c.6.19,1.19.38,1.77.59a7,7,0,0,0,1.76.63,67,67,0,0,1,12.44,6.23,61.07,61.07,0,0,1,10.18,8.22,64.78,64.78,0,0,1,8.08,9.94A74.58,74.58,0,0,1,345,133.83a91.89,91.89,0,0,1,4.37,12.59,114.24,114.24,0,0,1,2.54,12c2.28,14.44,1.12,28.88.4,43.23a149.62,149.62,0,0,1-9,45A197.59,197.59,0,0,1,325.14,283c3.56,4.66,4.93,10.1,5.19,16,20.94-27.27,35.92-56.59,38.94-91.2C370.74,190.92,372.39,174.18,369.81,157.26Z"/><path class="cls-2" d="M293.31,94.06c37.1,6.34,53.62,32.61,58.63,64.36,2.28,14.44,1.12,28.88.4,43.23a149.62,149.62,0,0,1-9,45A197.59,197.59,0,0,1,325.14,283c-4.57,6.8-9,13.72-14.46,19.94-1.86-1.38-1-2.78-.9-4,.46-9.29-3.54-15.92-12.17-19.58-9.11-3.86-18.85-4.87-28.57-5.89-9.09-1-18.29-.46-27.32-1.23-13.88-1.19-27.8-1.73-41.73-1.86-13.17-.13-26.36,0-39.4-2.14-2.5-.41-5-.9-7.45-1.48-13.22-3.07-26-8.69-36.19-17.69,2.76-.28,5.23,1.57,7.49,3.19A75.26,75.26,0,0,0,148,263.67c10.82,3.07,22.17,3.67,33.4,4.17q21.24.95,42.49,1.53c2.75.07,5.49,0,8.23,0,5.1.14,10.18.48,15.28.68,15.08.58,30.13,1.51,44.81,5.31,12.66,3.27,18.4,9.64,20.21,22.57,4.1-6,8.52-11,11.32-17.17a147,147,0,0,0,21-46.54c7.17-28.76,9.92-57.88,2.9-87.2a68.44,68.44,0,0,0-16.46-31.17,63,63,0,0,0-42.36-20.23c-10.59-.74-21.21-1-31.82-.84s-21.21.58-31.8,1.16c-1.75.07-3.51.2-5.26.3l-5.29.32q-2.64.16-5.28.36c-1.76.12-3.52.26-5.28.4s-3.52.29-5.28.45c-.31,0-.63.07-.94.1l-1,.09c-1.08.09-2.17.21-3.25.32-1.74.19-3.47.39-5.2.61s-3.46.46-5.19.72-3.45.53-5.17.81-3.45.59-5.16.91-3.43.65-5.15,1l-2,.41q-7.22,1.49-14.27,3.62a141.46,141.46,0,0,0-21.86,8.49c-17.34,8.31-26.35,22.51-29.76,40.85-1,5.42-1.88,10.87-3.09,16.24-.41-21,6.18-46.33,31.41-58.55,17.82-8.63,36.72-13.12,56.11-16,29.89-4.36,60.05-3.94,90.13-4.67A90.1,90.1,0,0,1,293.31,94.06Z"/><path class="cls-1" d="M439.7,146.66c.05,10.36-2.46,12.45-11.14,11.09-8.87-1.39-17.76-2.7-26.63-4.05-1.12-.17-2.53.05-3-1.31-.63-1.78,1.07-2.23,2.06-2.93,8.3-5.81,16.72-11.47,24.93-17.4,3.38-2.44,6-1.41,8.3,1.14A21.71,21.71,0,0,1,439.7,146.66Zm-3,2.34c-.3-5.18-1.41-9.66-4.55-13.35-2.23-2.61-4.17-2.24-5.46,1-1.77,4.45.42,13.95,4,17.28,2.56,2.4,4.4,2,5.35-1.45C436.33,151.21,436.51,149.9,436.68,149Zm-14.29-10.82c-5.53,5-11.57,8.37-18.39,12.95,8.34.57,14.85,2.64,21.95,2.6-.93-2.74-2.5-4.67-2.47-7.28C423.5,144,422.86,141.55,422.39,138.18Z"/><path class="cls-1" d="M446.08,318.84c.14,3.84-6.69,14.81-8.81,14.55-5.73-.73-12.4-.28-16.83-3.17-3.31-2.17-3.95-8.72-5.32-13.46-.61-2.11,8.63-13.23,10.41-12.88,5.66,1.12,12.44-.43,16.76,3.17C445.12,309.41,445.05,315.25,446.08,318.84Zm-9.77,11.21c-1.89-3.17-.62-8-4.07-9.45-4-1.7-8.84-1.63-13.6-2.37C422.21,329.82,422.5,330,436.31,330.05Zm2.45-21.35c-13.81-2.95-15.1-2.49-19,6.53C436.54,317.83,432.24,320,438.76,308.7Zm2.24,3c-5.72,7.49-5.89,9-2.08,15.77C443.75,323,443.69,317.6,441,311.68Z"/><path class="cls-1" d="M40.08,210.64c-1.28-.2-3.11-.86-4.87-.71-9.26.74-12.88-4.43-14.67-12.63-.66-3,0-4.8,1.29-7.19,3.7-6.69,8-10,16.56-8s8.37,1.3,11.3,9.64c2.71,7.74-2.62,12.33-5.41,18C43.57,211.19,41.89,210.46,40.08,210.64Zm.41-3.37c-2.28-9.63-2.28-9.63-11.89-10.84-1.15-.14-2.29-.37-3.44-.54-.59-.1-1.25-.49-1.62.41-.54,1.3,3.23,9.71,4.65,9.81C32.28,206.38,36.27,208,40.49,207.27Zm2.82-21.47c-3.62-.45-7.16-1-10.72-1.3-2.77-.26-7.76,4.63-7.74,7.36a1.17,1.17,0,0,0,.84,1.35C33.27,196.77,39.24,194.36,43.31,185.8Zm.11,19.32c4.53-4.94,5.42-10.25,2-15.92C40.74,193.84,39.64,199.15,43.42,205.12Z"/><path class="cls-2" d="M217.43,5.22c1.2,8.67-.58,17.11-.54,25.59,0,1.05.5,2.53-1,3s-2-.91-2.72-1.71c-5.26-5.75-10.46-11.55-15.71-17.31-2.39-2.63-2.64-5.34-.14-7.9a18,18,0,0,1,16.76-5.39C216.15,1.87,217.49,3.08,217.43,5.22Zm-15.59,7.94c4.33-.63,8.46-1.51,11.79-4.47,1.05-.93,1.91-2.07,1.35-3.47a3,3,0,0,0-2.93-1.55,17.32,17.32,0,0,0-12.3,4.48c-1,.89-2.11,2.12-1.64,3.42C198.68,13.13,200.54,12.86,201.84,13.16ZM214.5,29.6V10.77c-3.77,3.94-8.3,4-12.28,5.15Z"/><path class="cls-2" d="M368.49,88.53c-1.13.09-1.74-.1-1.95-.85-.41-1.45.68-2.09,1.61-2.77q11.21-8.3,22.44-16.58,15.24-11.23,30.48-22.45c1.07-.78,2.39-2.56,3.72-.62,1,1.53-.67,2.35-1.65,3.08Q396.71,67.9,370.23,87.39C369.58,87.88,368.87,88.28,368.49,88.53Z"/><path class="cls-2" d="M30,280.39C24,286.28,18.13,292.09,12.33,298c-2.25,2.31-4.44,2-6.57.18A16.23,16.23,0,0,1,0,285.44c0-2.79,1-5.15,4.7-5.09C13,280.47,21.23,280.39,30,280.39Zm-5.87,3.36-.8-1.19c-5.94,0-11.89,0-17.83,0-1.5,0-2.75.33-2.95,2a13.34,13.34,0,0,0,4.07,11.27c.87.9,1.79,2.19,3.37,1.26a9.62,9.62,0,0,0,1.46-1.34Z"/><path class="cls-1" d="M26.29,75.09c.94.46,2,.93,3,1.49l43,23.92a17.15,17.15,0,0,1,1.72,1c.75.54,1.9,1,1.09,2.24s-1.64.49-2.53,0c-3.89-2.19-7.83-4.32-11.74-6.5Q43.88,87.82,27,78.4c-1-.54-2.32-.8-2.22-2.31C24.8,75.28,25.44,75.06,26.29,75.09Z"/><path class="cls-2" d="M89.47,333.64c15.77-14.21,31.53-28.43,47.87-43.17C136.69,294.68,94.55,333,89.47,333.64Z"/><path class="cls-1" d="M292.41,22.58c-3.67-1.07-5.06.78-5.34,4.14a17.11,17.11,0,0,1-.79,3.89c-.29.88-.77,2-2.08,1.44a1.66,1.66,0,0,1-1-2c.67-3.08,1.23-6.17,2-9.23.59-2.44,2.72-1.58,4.14-1.42,4.09.44,6.53-.54,6.79-5.26.08-1.42-.46-4.19,1.93-4.56A79.22,79.22,0,0,1,308.41,9c.28,0,.89,1,.8,1.51s-.88,1.26-1.29,1.22c-7.14-.74-9.7,3-10.38,9.57C297.28,23.79,294.13,21.85,292.41,22.58Z"/><path class="cls-2" d="M49.84.39c1.49.16,3,.38,4.46.45C57,1,58.21,2.21,57.81,4.9c-.7,4.66,1.4,6.57,6,6.6,1.6,0,4.27-.91,4.62,1.61.47,3.41,1.89,6.78,1.12,10.27-.24,1.09-1.57,1.17-2.35.17a3,3,0,0,1-.52-1.86c.24-5.82-2.77-8.21-8.28-7.87C54.79,14,54.69,11.51,55,9.25c.52-4.41-1.33-6.08-5.55-5.72a10.32,10.32,0,0,1-2.47-.21c-1.16-.19-2.54-.41-2.32-2S46.16-.08,47.37.11c.82.14,1.64.24,2.46.35Z"/><path class="cls-2" d="M421.18,220.7a2,2,0,0,1,1.44-2,50.73,50.73,0,0,0,4.94-2.32c3.63-2.39,6.23-1.73,8.1,2.18,1.33,2.76,3.18,3.31,6,1.69,1.76-1,4.09-3.22,5.74-2,2.72,2,4.68,5.12,6.9,7.8.51.61.11,1.22-.36,1.74-.73.81-1.71.73-2.11,0-3.45-6.5-8-6.38-13.5-2.62-1.63,1.11-2.48-.71-3-1.76-2.41-5.24-5.82-5.14-10.11-2.36C424,221.85,422.23,223.07,421.18,220.7Z"/><path class="cls-2" d="M276.64,366.75c-1.82,2.7-3.71,5.59-5.73,8.39a1.85,1.85,0,0,1-1.76.26c-.42-.23-.57-1.06-.7-1.66a1.17,1.17,0,0,1,.39-.88c4.73-4.61,3.68-8.6-1.12-12.41-2.55-2-.15-3.66,1-4.87,2.93-3,3.21-5.64-.36-8.3a11.68,11.68,0,0,1-1.93-2.25c-.66-.82-1.17-1.7-.11-2.54a1.59,1.59,0,0,1,2.24.24c2.25,2.43,4.39,5,6.61,7.41,1.22,1.35.08,2.27-.7,2.91-4.92,4.05-3.37,7.58.65,11.09C275.8,364.73,276.84,365.29,276.64,366.75Z"/><path class="cls-2" d="M394.54,13.5a7.09,7.09,0,0,1-6.84,7,6.81,6.81,0,0,1-7-6.72,7,7,0,0,1,6.72-7.15A7.31,7.31,0,0,1,394.54,13.5Zm-2.77-.37c-.57-1.81-1.58-3.62-4.19-3.56-2.78.06-4.22,1.71-4.07,4.42.14,2.53,1.76,3.86,4.27,3.7S391.56,16,391.77,13.13Z"/><path class="cls-2" d="M377.81,328.5a6.58,6.58,0,0,1-6.72,6.94,7,7,0,0,1-7.09-6.71,7.2,7.2,0,0,1,6.86-7.09A7,7,0,0,1,377.81,328.5Zm-11.06-.13c.18,1.94.94,4.07,2.94,3.92s5-.53,5.13-3.49c.12-2.23-1-4.28-3.7-4.34C368.6,324.41,367.26,326,366.75,328.37Z"/><path class="cls-1" d="M398.64,245.81a7,7,0,1,1-13.91-.86,7,7,0,0,1,13.91.86Zm-2.81-1.14c-.52-1.76-1.58-3.47-4.22-3.34-2.81.14-4.2,1.78-4,4.5.22,2.52,1.9,3.8,4.37,3.61S395.75,247.69,395.83,244.67Z"/><path class="cls-1" d="M97.09,293.2c0,3.88-3.29,7.14-7.07,6.78-4-.38-6.44-2.58-6.58-6.77a6.83,6.83,0,1,1,13.65,0Zm-6.84,4.19c2.25-.33,4-1.63,4.16-4A3.85,3.85,0,0,0,90.65,289a3.92,3.92,0,0,0-4.58,4C86,295.41,87.68,296.88,90.25,297.39Z"/><path class="cls-2" d="M159.41,33.54a7.31,7.31,0,0,1,7.19,6.78,7.29,7.29,0,0,1-6.83,7.13,7,7,0,0,1-.36-13.91ZM163.86,40c-.66-1.8-1.67-3.57-4.29-3.52-2.89.06-4.21,1.81-4,4.46a3.68,3.68,0,0,0,4.32,3.68C162.37,44.38,163.55,42.76,163.86,40Z"/><path class="cls-2" d="M35.34,134.75c2.42,1,4.86,2,7.29,3.08,5,2.15,10,4.33,15,6.48,1.07.46,2.42.85,2,2.33s-1.84,1.2-2.88.76q-11-4.62-21.87-9.36c-.87-.38-1.88-1-1.51-2.19A1.53,1.53,0,0,1,35.34,134.75Z"/><path class="cls-1" d="M138.13,363.74a6.86,6.86,0,0,1-6.8,7.09,6.78,6.78,0,0,1-6.9-6.44,6.68,6.68,0,0,1,6.5-7.27A6.75,6.75,0,0,1,138.13,363.74Zm-2.57.37c-.32-2.29-1.52-4.13-3.94-4.31a4.17,4.17,0,1,0-.5,8.33C133.54,368.24,135,366.55,135.56,364.11Z"/><path class="cls-1" d="M225.57,297.7v41.59l-1.16,0V297.7Z"/><path class="cls-2" d="M98.46,211.09c-2.93-9.7-2-28.69-1.72-38.45a4.64,4.64,0,0,1,.57,1.14,4.71,4.71,0,0,1,.26,1.69q.25,6.9.44,13.88Q98.31,200.32,98.46,211.09Z"/><path class="cls-2" d="M116.73,248.84a107.24,107.24,0,0,1-14.28-25.27,105.09,105.09,0,0,1-4-12,57.25,57.25,0,0,0,18.24,37.3Z"/></g></g></svg>