<svg xmlns="http://www.w3.org/2000/svg" xmlns:xlink="http://www.w3.org/1999/xlink" width="35" height="35" viewBox="0 0 35 35">
  <defs>
    <clipPath id="clip-path">
      <circle id="Ellipse_274" data-name="Ellipse 274" cx="17.5" cy="17.5" r="17.5" transform="translate(-0.402)" fill="#fff"/>
    </clipPath>
  </defs>
  <g id="Group_40" data-name="Group 40" transform="translate(0.402)">
    <g id="Mask_Group_8" data-name="Mask Group 8" clip-path="url(#clip-path)">
      <path id="iconfinder_43-twitter_104461" d="M20.147,3.665a17.5,17.5,0,1,0,17.5,17.5A17.5,17.5,0,0,0,20.147,3.665Zm8.815,13.972c.009.189.013.379.013.571A12.544,12.544,0,0,1,9.666,28.775a9.019,9.019,0,0,0,1.052.061A8.848,8.848,0,0,0,16.2,26.949a4.417,4.417,0,0,1-4.119-3.064,4.307,4.307,0,0,0,.829.079,4.383,4.383,0,0,0,1.162-.154,4.414,4.414,0,0,1-3.539-4.324c0-.019,0-.038,0-.057a4.4,4.4,0,0,0,2,.552,4.416,4.416,0,0,1-1.365-5.889A12.521,12.521,0,0,0,20.253,18.7a4.413,4.413,0,0,1,7.515-4.022,8.809,8.809,0,0,0,2.8-1.07,4.423,4.423,0,0,1-1.94,2.44,8.817,8.817,0,0,0,2.534-.694A8.91,8.91,0,0,1,28.962,17.637Z" transform="translate(-3.049 -3.665)" fill="#fff"/>
    </g>
  </g>
</svg>
